<svg height="87.865" viewBox="0 0 849.364 87.865" width="849.364" xmlns="http://www.w3.org/2000/svg"><g fill="#fff"><path d="m8 181.477v-62.877h13.549v62.877z" transform="translate(-8 -112.109)"/><path d="m99.2 141.719c2.6 2.84 3.894 7.383 3.894 13.711v29.613h-13.061v-29.694a9.9 9.9 0 0 0 -.811-4.543 4.422 4.422 0 0 0 -2.191-2.191 9.588 9.588 0 0 0 -3.651-.568 7.264 7.264 0 0 0 -4.462 1.3 8.594 8.594 0 0 0 -2.918 3.568c0 .162.081.568.081.974v31.154h-13.064v-29.532a9.9 9.9 0 0 0 -.811-4.543 4.6 4.6 0 0 0 -2.191-2.272 9.486 9.486 0 0 0 -3.651-.649 8.079 8.079 0 0 0 -4.3 1.136 7.891 7.891 0 0 0 -2.921 3.164v32.777h-13.143v-46.732h12.17l.406 5.192a15.778 15.778 0 0 1 5.76-4.543 17.8 17.8 0 0 1 7.626-1.541 14.735 14.735 0 0 1 7.464 1.785 11.1 11.1 0 0 1 4.787 5.355 15.81 15.81 0 0 1 5.841-5.274 17.344 17.344 0 0 1 8.113-1.866c4.787 0 8.438 1.379 11.033 4.219z" transform="translate(-13.283 -115.676)"/><path d="m166.1 180.013a17.376 17.376 0 0 0 1.46 4.381v.73h-13.06a13.7 13.7 0 0 1 -1.217-4.219 14.776 14.776 0 0 1 -11.683 5.03 17.681 17.681 0 0 1 -8.032-1.785 14.448 14.448 0 0 1 -5.76-5.03 12.993 12.993 0 0 1 -2.108-7.22 13.222 13.222 0 0 1 5.517-11.358c3.651-2.677 9.006-3.975 16.145-3.975h5.274v-2.6a7.344 7.344 0 0 0 -1.623-5.03c-1.055-1.217-2.758-1.785-4.949-1.785a7.143 7.143 0 0 0 -4.624 1.379 4.871 4.871 0 0 0 -1.623 3.975h-13.062a12.472 12.472 0 0 1 2.515-7.626 16.812 16.812 0 0 1 7.058-5.436 26.591 26.591 0 0 1 10.547-1.947 24.917 24.917 0 0 1 9.817 1.866 14.118 14.118 0 0 1 6.653 5.6 16.339 16.339 0 0 1 2.434 9.087v19.55a25.677 25.677 0 0 0 .321 6.413zm-16.632-5.192a7.576 7.576 0 0 0 3.164-3v-7.791h-4.949c-3 0-5.274.649-6.734 1.947a6.511 6.511 0 0 0 -2.191 5.111 4.445 4.445 0 0 0 1.541 3.57 6.281 6.281 0 0 0 4.219 1.379 10.165 10.165 0 0 0 4.953-1.217z" transform="translate(-30.208 -115.676)"/><path d="m225.081 138.392v45.028a20.471 20.471 0 0 1 -2.84 10.872 17.654 17.654 0 0 1 -8.032 6.9 29.081 29.081 0 0 1 -12.007 2.353 27.533 27.533 0 0 1 -9.655-1.866 17.9 17.9 0 0 1 -7.707-5.274l5.679-7.951a15.084 15.084 0 0 0 5.03 3.732 14.25 14.25 0 0 0 6.166 1.3 10.508 10.508 0 0 0 7.545-2.6c1.785-1.7 2.677-4.219 2.677-7.383v-2.353a14.106 14.106 0 0 1 -11.115 4.868 16.749 16.749 0 0 1 -9.979-3.083 19.694 19.694 0 0 1 -6.572-8.438 30.426 30.426 0 0 1 -2.271-12.171v-.892a31.779 31.779 0 0 1 2.272-12.494 19.694 19.694 0 0 1 6.572-8.438 16.942 16.942 0 0 1 10.06-3c5.03 0 9.006 1.7 11.845 5.192l.487-4.3zm-13.062 33.02v-19.39c-1.623-2.677-4.138-3.975-7.789-3.975a7.683 7.683 0 0 0 -6.9 3.732 17.384 17.384 0 0 0 -2.434 9.655v.892a17.5 17.5 0 0 0 2.353 9.492 7.6 7.6 0 0 0 6.9 3.651c3.651-.081 6.251-1.379 7.87-4.056z" transform="translate(-40.832 -115.676)"/><path d="m312.058 141.719c2.6 2.84 3.813 7.383 3.813 13.711v29.613h-13.062v-29.694c0-2.758-.568-4.706-1.785-5.76a8.143 8.143 0 0 0 -5.517-1.623 8.857 8.857 0 0 0 -4.462 1.055 8.629 8.629 0 0 0 -3.083 3.083v32.939h-13.062v-46.732h12.251l.406 5.436a16.083 16.083 0 0 1 5.841-4.624 17.718 17.718 0 0 1 7.545-1.623c4.949 0 8.519 1.379 11.115 4.219z" transform="translate(-58.361 -115.676)"/><path d="m372.6 180.013a17.376 17.376 0 0 0 1.46 4.381v.73h-13.06a13.7 13.7 0 0 1 -1.217-4.219 14.776 14.776 0 0 1 -11.683 5.03 17.681 17.681 0 0 1 -8.032-1.785 14.448 14.448 0 0 1 -5.76-5.03 12.993 12.993 0 0 1 -2.108-7.22 13.222 13.222 0 0 1 5.517-11.358c3.651-2.677 9.006-3.975 16.145-3.975h5.274v-2.6a7.344 7.344 0 0 0 -1.623-5.03c-1.055-1.217-2.758-1.785-4.949-1.785a7.143 7.143 0 0 0 -4.624 1.379 4.871 4.871 0 0 0 -1.623 3.975h-13.062a12.472 12.472 0 0 1 2.515-7.626 16.812 16.812 0 0 1 7.058-5.436 26.591 26.591 0 0 1 10.547-1.947 24.917 24.917 0 0 1 9.817 1.866 14.118 14.118 0 0 1 6.653 5.6 16.339 16.339 0 0 1 2.434 9.087v19.55a25.677 25.677 0 0 0 .321 6.413zm-16.71-5.193a7.576 7.576 0 0 0 3.164-3v-7.79h-4.949c-3 0-5.274.649-6.734 1.947a6.511 6.511 0 0 0 -2.191 5.111 4.445 4.445 0 0 0 1.541 3.57 6.281 6.281 0 0 0 4.219 1.379 9.73 9.73 0 0 0 4.95-1.217z" transform="translate(-69.172 -115.676)"/><path d="m415.751 137.662a7.314 7.314 0 0 1 1.785.406l-.162 12.575a32.491 32.491 0 0 0 -4.624-.325c-4.624 0-7.707 1.541-9.087 4.624v30.181h-13.063v-46.731h12.251l.406 5.679a12.81 12.81 0 0 1 4.381-4.868 10.819 10.819 0 0 1 6-1.7 19.98 19.98 0 0 1 2.113.159z" transform="translate(-80.192 -115.676)"/><path d="m497.1 180.013a17.376 17.376 0 0 0 1.46 4.381v.73h-13.06a13.7 13.7 0 0 1 -1.217-4.219 14.776 14.776 0 0 1 -11.683 5.03 17.681 17.681 0 0 1 -8.032-1.785 14.448 14.448 0 0 1 -5.76-5.03 12.993 12.993 0 0 1 -2.108-7.22 13.222 13.222 0 0 1 5.517-11.358c3.651-2.677 9.006-3.975 16.145-3.975h5.274v-2.6a7.344 7.344 0 0 0 -1.623-5.03c-1.055-1.217-2.758-1.785-4.949-1.785a7.143 7.143 0 0 0 -4.625 1.379 4.871 4.871 0 0 0 -1.623 3.975h-13.061a12.473 12.473 0 0 1 2.515-7.626 16.812 16.812 0 0 1 7.058-5.436 26.591 26.591 0 0 1 10.547-1.947 24.917 24.917 0 0 1 9.817 1.866 14.118 14.118 0 0 1 6.653 5.6 16.339 16.339 0 0 1 2.434 9.087v19.55a25.677 25.677 0 0 0 .321 6.413zm-16.632-5.192a7.576 7.576 0 0 0 3.164-3v-7.791h-4.949c-3 0-5.274.649-6.734 1.947a6.511 6.511 0 0 0 -2.191 5.111 4.445 4.445 0 0 0 1.542 3.57 6.281 6.281 0 0 0 4.219 1.379 10.164 10.164 0 0 0 4.952-1.217z" transform="translate(-92.664 -115.676)"/><path d="m551.758 141.719c2.6 2.84 3.813 7.383 3.813 13.711v29.613h-13.062v-29.694c0-2.758-.568-4.706-1.785-5.76a8.142 8.142 0 0 0 -5.517-1.623 8.856 8.856 0 0 0 -4.462 1.055 8.629 8.629 0 0 0 -3.083 3.083v32.939h-13.062v-46.732h12.251l.406 5.436a16.084 16.084 0 0 1 5.841-4.624 17.718 17.718 0 0 1 7.545-1.623c4.868 0 8.519 1.379 11.115 4.219z" transform="translate(-103.589 -115.676)"/><path d="m572.66 152.123a12.361 12.361 0 0 1 2.272-7.3 15.439 15.439 0 0 1 6.572-5.274 23.8 23.8 0 0 1 9.979-1.947 26.183 26.183 0 0 1 10.466 1.947 16.011 16.011 0 0 1 6.9 5.355 13.135 13.135 0 0 1 2.434 7.87h-13.066a5.684 5.684 0 0 0 -1.7-4.381c-1.136-1.055-2.84-1.541-5.111-1.541a7.731 7.731 0 0 0 -4.543 1.3 4.2 4.2 0 0 0 -1.7 3.489 3.657 3.657 0 0 0 1.947 3.245 19.946 19.946 0 0 0 6.572 2.109 50.047 50.047 0 0 1 9.33 2.677 14.83 14.83 0 0 1 6.085 4.624 11.69 11.69 0 0 1 2.272 7.464 12.042 12.042 0 0 1 -2.434 7.383 15.848 15.848 0 0 1 -6.977 5.111 27.7 27.7 0 0 1 -10.466 1.866 23.641 23.641 0 0 1 -10.872-2.272 16.916 16.916 0 0 1 -6.977-5.923 13.429 13.429 0 0 1 -2.434-7.545h12.332a5.816 5.816 0 0 0 2.434 4.949 10.128 10.128 0 0 0 5.841 1.623 8.514 8.514 0 0 0 5.111-1.3 3.928 3.928 0 0 0 1.785-3.408 3.26 3.26 0 0 0 -.811-2.272 7.435 7.435 0 0 0 -2.84-1.785 39.621 39.621 0 0 0 -5.841-1.623c-11.043-2.515-16.56-7.302-16.56-14.441z" transform="translate(-114.268 -115.695)"/><path d="m710.99 138.6-11.683 46.732h-10.953l-8.6-28.639-8.519 28.639h-10.952l-11.683-46.732h12.494l5.76 29.126 8.194-29.126h9.33l8.194 28.964 5.76-28.964z" transform="translate(-128.873 -115.883)"/><path d="m768.8 180.013a17.378 17.378 0 0 0 1.46 4.381v.73h-13.06a13.7 13.7 0 0 1 -1.217-4.219 14.776 14.776 0 0 1 -11.683 5.03 17.681 17.681 0 0 1 -8.032-1.785 14.448 14.448 0 0 1 -5.76-5.03 12.993 12.993 0 0 1 -2.108-7.22 13.222 13.222 0 0 1 5.517-11.358c3.651-2.677 9.006-3.975 16.145-3.975h5.273v-2.6a7.344 7.344 0 0 0 -1.623-5.03c-1.055-1.217-2.758-1.785-4.949-1.785a7.143 7.143 0 0 0 -4.625 1.379 4.87 4.87 0 0 0 -1.623 3.975h-13.06a12.473 12.473 0 0 1 2.515-7.626 16.812 16.812 0 0 1 7.058-5.436 26.591 26.591 0 0 1 10.547-1.947 24.917 24.917 0 0 1 9.817 1.866 14.118 14.118 0 0 1 6.653 5.6 16.339 16.339 0 0 1 2.434 9.087v19.55a25.672 25.672 0 0 0 .321 6.413zm-16.71-5.193a7.576 7.576 0 0 0 3.164-3v-7.79h-4.949c-3 0-5.273.649-6.734 1.947a6.511 6.511 0 0 0 -2.191 5.111 4.445 4.445 0 0 0 1.542 3.57 6.281 6.281 0 0 0 4.219 1.379 9.73 9.73 0 0 0 4.949-1.217z" transform="translate(-143.93 -115.676)"/><path d="m823.358 141.719c2.6 2.84 3.813 7.383 3.813 13.711v29.613h-13.062v-29.694c0-2.758-.568-4.706-1.785-5.76a8.143 8.143 0 0 0 -5.517-1.623 8.856 8.856 0 0 0 -4.462 1.055 8.628 8.628 0 0 0 -3.083 3.083v32.939h-13.062v-46.732h12.251l.406 5.436a16.083 16.083 0 0 1 5.841-4.624 17.719 17.719 0 0 1 7.545-1.623c4.949 0 8.6 1.379 11.115 4.219z" transform="translate(-154.836 -115.676)"/><path d="m868.79 172.411v9.817a22.6 22.6 0 0 1 -7.707 1.217c-9.168 0-13.711-4.624-13.711-13.955v-24.1h-6.572v-9.49h6.572v-11.6h13.062v11.6h7.87v9.492h-7.87v22.555c0 1.866.325 3.083 1.055 3.813a5.442 5.442 0 0 0 3.651 1.055 22.77 22.77 0 0 0 3.65-.404z" transform="translate(-165.138 -113.185)"/><path d="m921.337 165.977h-29.531a11.245 11.245 0 0 0 3.651 6.9 10.85 10.85 0 0 0 7.464 2.6 14.612 14.612 0 0 0 6.247-1.3 11.764 11.764 0 0 0 4.868-3.813l6.247 7.221a18.363 18.363 0 0 1 -7.221 5.923 23.892 23.892 0 0 1 -11.115 2.434 24.775 24.775 0 0 1 -12.494-3 21.269 21.269 0 0 1 -8.113-8.194 23.9 23.9 0 0 1 -2.84-11.44v-1.623a29.4 29.4 0 0 1 2.6-12.494 20.645 20.645 0 0 1 7.626-8.6 22.1 22.1 0 0 1 11.764-3.083 21.543 21.543 0 0 1 11.277 2.84 18.2 18.2 0 0 1 7.058 7.951 28.072 28.072 0 0 1 2.434 12.17v5.517zm-12.737-9.817a8.834 8.834 0 0 0 -2.109-6 7.785 7.785 0 0 0 -6-2.191 7.359 7.359 0 0 0 -5.841 2.434 13.852 13.852 0 0 0 -2.759 6.815h16.632v-1.058z" transform="translate(-172.252 -115.676)"/><path d="m977.551 114.362v66.284h-11.683l-.649-5.03a14.381 14.381 0 0 1 -11.845 5.841 16.258 16.258 0 0 1 -9.817-3.083 18.5 18.5 0 0 1 -6.247-8.438 32.066 32.066 0 0 1 -2.109-12.251v-.892a34.434 34.434 0 0 1 2.109-12.494 18.394 18.394 0 0 1 6.247-8.357 16.65 16.65 0 0 1 9.9-3 14.339 14.339 0 0 1 11.115 5.03v-23.772h12.981zm-12.981 52.005v-18.011q-2.19-4.624-7.789-4.624a6.882 6.882 0 0 0 -6.491 3.651c-1.379 2.434-2.028 5.679-2.028 9.736v.892c0 3.975.649 7.221 2.028 9.574a6.878 6.878 0 0 0 6.491 3.57 8.6 8.6 0 0 0 7.789-4.788z" transform="translate(-182.95 -111.279)"/><path d="m1015.1 186.931 22.717-68.231h9.573l-22.717 68.231z" transform="translate(-198.027 -112.128)"/></g><path d="m441.613 130.2h-5.76a6.683 6.683 0 0 0 -6.653 6.653v18.336a2.835 2.835 0 0 0 .649 1.785l2.84 4.706v22.068h12.17v-22.069l2.84-4.787a2.835 2.835 0 0 0 .649-1.785v-18.254a6.7 6.7 0 0 0 -6.735-6.653z" fill="#5fcaff" transform="translate(-87.475 -114.298)"/><path d="m439.358 124.717a7.058 7.058 0 1 0 -7.058-7.058 7.064 7.064 0 0 0 7.058 7.058z" fill="#5fcaff" transform="translate(-88.06 -110.6)"/><path d="m264.583 161.6-3.813-11.44v-11.766a8.194 8.194 0 1 0 -16.389 0v11.764l-3.813 11.44a2.6 2.6 0 0 0 .243 2.191 2.426 2.426 0 0 0 2.028 1.055h3.894v18.9h11.767v-18.9h3.894a2.537 2.537 0 0 0 2.028-1.055 2.917 2.917 0 0 0 .161-2.189z" fill="#5fcaff" transform="translate(-51.857 -114.298)"/><path d="m253.758 124.717a7.058 7.058 0 1 0 -7.058-7.058 7.064 7.064 0 0 0 7.058 7.058z" fill="#5fcaff" transform="translate(-53.04 -110.6)"/></svg>